<?xml version="1.0" encoding="utf-8"?>
<?xml-stylesheet type="text/xsl" href="rss1.xsl"?>
<rss version="2.0" xmlns:atom="http://www.w3.org/2005/Atom" xmlns:content="http://purl.org/rss/1.0/modules/content/" xmlns:dc="http://purl.org/dc/elements/1.1/" xmlns:media="http://search.yahoo.com/mrss/">
<channel>
 <title>Getty</title>
 <link>http://www.gettyimg.com/</link>
 <atom:link href="http://www.gettyimg.com/" rel="self" type="application/rss+xml" />

 
                <item>
                <title><![CDATA[【Apple Music】WEB-RiP - Ava Max - My Oh My 'A.M WEB-DL.4K.AAC2.0-fstambuk']]></title>
                <link><![CDATA[https://sharemania.us/threads/ava-max-my-oh-my-a-m-web-dl-4k-aac2-0-fstambuk.241413/]]></link>
                <description><![CDATA[<article>
<blockquote class="messageText SelectQuoteContainer ugc baseHtml">
<div style="text-align: center"><img src="https://i.ibb.co/7YxN1jg/20240404183149.gif" class="bbCodeImage LbImage" alt="[​IMG]" data-url="https://i.ibb.co/7YxN1jg/20240404183149.gif" style=""><br>
​</div>
<div class="ToggleTriggerAnchor bbCodeSpoilerContainer">
<button type="button" class="button bbCodeSpoilerButton ToggleTrigger Tooltip JsOnly" data-target="> .SpoilerTarget"><span>Spoiler: <span class="SpoilerTitle">Apple Music</span></span></button>
<div class="SpoilerTarget bbCodeSpoilerText">
<div class="bbCodeBlock bbCodeCode">
<div class="type">Code:</div>
<pre>General
Complete name                            : Ava Max - My Oh My 'A.M WEB-DL.4K.AAC2.0-fstambuk'.mp4
Format                                   : MPEG-4
Format profile                           : Base Media
Codec ID                                 : isom (isom/iso4)
File size                                : 225 MiB
Duration                                 : 2 min 36 s
Overall bit rate mode                    : Variable
Overall bit rate                         : 12.1 Mb/s
Frame rate                               : 23.976 FPS
Movie name                               : My Oh My
Performer                                : Ava Max
Genre                                    : Pop
ContentType                              : Music Video
Recorded date                            : 2024-04-04
Encoded date                             : 2024-04-04 18:25:48 UTC
Tagged date                              : 2024-04-04 18:25:48 UTC
ISRC                                     : USATV2400898
Cover                                    : Yes

Video
ID                                       : 1
Format                                   : HEVC
Format/Info                              : High Efficiency Video Coding
Format profile                           : Main 10@L5@High
Codec ID                                 : hvc1
Codec ID/Info                            : High Efficiency Video Coding
Duration                                 : 2 min 36 s
Bit rate                                 : 11.8 Mb/s
Maximum bit rate                         : 19.0 Mb/s
Width                                    : 3 840 pixels
Height                                   : 2 160 pixels
Display aspect ratio                     : 16:9
Frame rate mode                          : Constant
Frame rate                               : 23.976 (24000/1001) FPS
Color space                              : YUV
Chroma subsampling                       : 4:2:0
Bit depth                                : 10 bits
Scan type                                : Progressive
Bits/(Pixel*Frame)                       : 0.059
Stream size                              : 219 MiB (98%)
Default                                  : Yes
Alternate group                          : 1
Encoded date                             : 2024-04-04 03:47:42 UTC
Tagged date                              : 2024-04-04 18:25:48 UTC
Color range                              : Limited
Color primaries                          : BT.709
Transfer characteristics                 : BT.709
Matrix coefficients                      : BT.709
Codec configuration box                  : hvcC

Audio
ID                                       : 2
Format                                   : AAC LC
Format/Info                              : Advanced Audio Codec Low Complexity
Codec ID                                 : 2 / 40 / mp4a-40-2
Duration                                 : 2 min 36 s
Duration_LastFrame                       : -5 ms
Bit rate mode                            : Variable
Bit rate                                 : 265 kb/s
Maximum bit rate                         : 327 kb/s
Channel(s)                               : 2 channels
Channel layout                           : L R
Sampling rate                            : 48.0 kHz
Frame rate                               : 46.875 FPS (1024 SPF)
Compression mode                         : Lossy
Stream size                              : 4.90 MiB (2%)
Language                                 : English
Default                                  : Yes
Alternate group                          : 2
Encoded date                             : 2024-04-04 03:47:29 UTC
Tagged date                              : 2024-04-04 18:25:48 UTC

</pre>
</div><div style="text-align: center">​</div></div>
</div><div style="text-align: center"><br>
<div class="bbCodeBlock bbCodeVfcHH HiddenContent">
<div class="attribution type">Hidden Content:</div>
<blockquote>You must reply before you can see the hidden data contained here.</blockquote>
</div></div>
<div class="messageTextEndMarker">&nbsp;</div>
</blockquote>
</article>]]></description>
                <author><![CDATA[fstambuk]]></author>
                </item>

                
                <item>
                <title><![CDATA[【Apple Music】WEB-RiP - CHINCHILLA - MF Diamond [E] 'A.M WEB-DL.1080.AAC2.0-fstambuk']]></title>
                <link><![CDATA[https://sharemania.us/threads/chinchilla-mf-diamond-e-a-m-web-dl-1080-aac2-0-fstambuk.241414/]]></link>
                <description><![CDATA[<article>
<blockquote class="messageText SelectQuoteContainer ugc baseHtml">
<div style="text-align: center"><img src="https://i.ibb.co/xF9hSXN/20240404183853.gif" class="bbCodeImage LbImage" alt="[​IMG]" data-url="https://i.ibb.co/xF9hSXN/20240404183853.gif" style=""><br>
​</div>
<div class="ToggleTriggerAnchor bbCodeSpoilerContainer">
<button type="button" class="button bbCodeSpoilerButton ToggleTrigger Tooltip JsOnly" data-target="> .SpoilerTarget"><span>Spoiler: <span class="SpoilerTitle">Apple Music</span></span></button>
<div class="SpoilerTarget bbCodeSpoilerText">
<div class="bbCodeBlock bbCodeCode">
<div class="type">Code:</div>
<pre>General
Complete name                            : CHINCHILLA - MF Diamond [E] 'A.M WEB-DL.1080.AAC2.0-fstambuk'.mp4
Format                                   : MPEG-4
Format profile                           : Base Media
Codec ID                                 : isom (isom/iso4)
File size                                : 224 MiB
Duration                                 : 3 min 5 s
Overall bit rate mode                    : Variable
Overall bit rate                         : 10.1 Mb/s
Frame rate                               : 24.000 FPS
Movie name                               : MF Diamond
Performer                                : CHINCHILLA
Genre                                    : Pop
ContentType                              : Music Video
Recorded date                            : 2024-03-21
Encoded date                             : 2024-04-04 16:08:36 UTC
Tagged date                              : 2024-04-04 16:08:36 UTC
ISRC                                     : GBUV72400403
Cover                                    : Yes
Rating                                   : Explicit

Video
ID                                       : 1
Format                                   : AVC
Format/Info                              : Advanced Video Codec
Format profile                           : High@L4
Format settings                          : CABAC / 4 Ref Frames
Format settings, CABAC                   : Yes
Format settings, Reference frames        : 4 frames
Format settings, Slice count             : 8 slices per frame
Codec ID                                 : avc1
Codec ID/Info                            : Advanced Video Coding
Duration                                 : 3 min 5 s
Bit rate                                 : 9 860 kb/s
Maximum bit rate                         : 52.9 Mb/s
Width                                    : 1 920 pixels
Height                                   : 1 080 pixels
Display aspect ratio                     : 16:9
Frame rate mode                          : Constant
Frame rate                               : 24.000 FPS
Color space                              : YUV
Chroma subsampling                       : 4:2:0
Bit depth                                : 8 bits
Scan type                                : Progressive
Bits/(Pixel*Frame)                       : 0.198
Stream size                              : 218 MiB (97%)
Default                                  : Yes
Alternate group                          : 1
Encoded date                             : 2024-03-19 20:02:08 UTC
Tagged date                              : 2024-04-04 16:08:37 UTC
Color range                              : Limited
Color primaries                          : BT.709
Transfer characteristics                 : BT.709
Matrix coefficients                      : BT.709
Codec configuration box                  : avcC

Audio
ID                                       : 2
Format                                   : AAC LC
Format/Info                              : Advanced Audio Codec Low Complexity
Codec ID                                 : 2 / 40 / mp4a-40-2
Duration                                 : 3 min 5 s
Duration_LastFrame                       : -5 ms
Bit rate mode                            : Variable
Bit rate                                 : 265 kb/s
Maximum bit rate                         : 496 kb/s
Channel(s)                               : 2 channels
Channel layout                           : L R
Sampling rate                            : 48.0 kHz
Frame rate                               : 46.875 FPS (1024 SPF)
Compression mode                         : Lossy
Stream size                              : 5.77 MiB (3%)
Language                                 : English
Default                                  : Yes
Alternate group                          : 2
Encoded date                             : 2024-03-19 20:01:57 UTC
Tagged date                              : 2024-04-04 16:08:37 UTC

</pre>
</div><div style="text-align: center">​</div></div>
</div><div style="text-align: center"><br>
<b>
<div class="bbCodeBlock bbCodeVfcHH HiddenContent">
<div class="attribution type">Hidden Content:</div>
<blockquote>You must reply before you can see the hidden data contained here.</blockquote>
</div></b>​</div>
<div class="messageTextEndMarker">&nbsp;</div>
</blockquote>
</article>]]></description>
                <author><![CDATA[fstambuk]]></author>
                </item>

                </channel></rss>